<?xml version="1.0" encoding="UTF-8"?>
<svg xmlns="http://www.w3.org/2000/svg" xmlns:xlink="http://www.w3.org/1999/xlink" viewBox="0 0 32 32" width="32px" height="32px">
<g id="surface240960074">
<path style=" stroke:none;fill-rule:nonzero;fill:rgb(100%,100%,100%);fill-opacity:1;" d="M 24.890625 21.332031 C 25.871094 21.332031 26.667969 22.128906 26.667969 23.109375 C 26.667969 24.09375 25.871094 24.890625 24.890625 24.890625 C 24.355469 24.890625 7.644531 24.890625 7.109375 24.890625 C 6.128906 24.890625 5.332031 24.09375 5.332031 23.109375 C 5.332031 22.128906 6.128906 21.332031 7.109375 21.332031 C 7.644531 21.332031 24.355469 21.332031 24.890625 21.332031 Z M 24.890625 14.222656 C 25.871094 14.222656 26.667969 15.019531 26.667969 16 C 26.667969 16.980469 25.871094 17.777344 24.890625 17.777344 C 24.355469 17.777344 7.644531 17.777344 7.109375 17.777344 C 6.128906 17.777344 5.332031 16.980469 5.332031 16 C 5.332031 15.019531 6.128906 14.222656 7.109375 14.222656 C 7.644531 14.222656 24.355469 14.222656 24.890625 14.222656 Z M 24.890625 7.109375 C 25.871094 7.109375 26.667969 7.90625 26.667969 8.890625 C 26.667969 9.871094 25.871094 10.667969 24.890625 10.667969 C 24.355469 10.667969 7.644531 10.667969 7.109375 10.667969 C 6.128906 10.667969 5.332031 9.871094 5.332031 8.890625 C 5.332031 7.90625 6.128906 7.109375 7.109375 7.109375 C 7.644531 7.109375 24.355469 7.109375 24.890625 7.109375 Z M 24.890625 7.109375 "/>
</g>
</svg>
